<mxfile host="Electron" modified="2024-03-20T16:42:07.079Z" agent="Mozilla/5.0 (Windows NT 10.0; Win64; x64) AppleWebKit/537.36 (KHTML, like Gecko) draw.io/24.0.4 Chrome/120.0.6099.109 Electron/28.1.0 Safari/537.36" etag="H_kwhn7iW2PeZrV7h6Z4" version="24.0.4" type="device">
  <diagram name="Page-1" id="k97IPfC5oC_IS4pqHZgH">
    <mxGraphModel dx="2908" dy="1180" grid="1" gridSize="10" guides="1" tooltips="1" connect="1" arrows="1" fold="1" page="1" pageScale="1" pageWidth="850" pageHeight="1100" math="0" shadow="0">
      <root>
        <mxCell id="0" />
        <mxCell id="1" parent="0" />
        <mxCell id="cx-KFS0KVbfxtX87BcAK-2" value="CPM CLI" style="ellipse;whiteSpace=wrap;html=1;" parent="1" vertex="1">
          <mxGeometry x="360" y="350" width="120" height="80" as="geometry" />
        </mxCell>
        <mxCell id="cx-KFS0KVbfxtX87BcAK-3" value="Setup" style="ellipse;whiteSpace=wrap;html=1;" parent="1" vertex="1">
          <mxGeometry x="360" y="480" width="120" height="80" as="geometry" />
        </mxCell>
        <mxCell id="cx-KFS0KVbfxtX87BcAK-5" value="Build" style="ellipse;whiteSpace=wrap;html=1;" parent="1" vertex="1">
          <mxGeometry x="880" y="480" width="120" height="80" as="geometry" />
        </mxCell>
        <mxCell id="cx-KFS0KVbfxtX87BcAK-6" value="Provide packages, libraries, and supported platforms/compilers to generate a skeleton cache that holds these variables" style="rounded=0;whiteSpace=wrap;html=1;" parent="1" vertex="1">
          <mxGeometry x="-160" y="560" width="120" height="120" as="geometry" />
        </mxCell>
        <mxCell id="cx-KFS0KVbfxtX87BcAK-4" value="Generate" style="ellipse;whiteSpace=wrap;html=1;" parent="1" vertex="1">
          <mxGeometry x="-160" y="480" width="120" height="80" as="geometry" />
        </mxCell>
        <mxCell id="cx-KFS0KVbfxtX87BcAK-7" value="Using the provided cache from the previous step, generate a CMake base file and install all the libraries and prerequisites" style="rounded=0;whiteSpace=wrap;html=1;" parent="1" vertex="1">
          <mxGeometry x="360" y="560" width="120" height="120" as="geometry" />
        </mxCell>
        <mxCell id="cx-KFS0KVbfxtX87BcAK-8" value="Having all the information cache about the project, build the cmake project with any available compilers and provide an install folder" style="rounded=0;whiteSpace=wrap;html=1;" parent="1" vertex="1">
          <mxGeometry x="880" y="560" width="120" height="120" as="geometry" />
        </mxCell>
        <mxCell id="cx-KFS0KVbfxtX87BcAK-9" value="" style="endArrow=classic;html=1;rounded=0;exitX=0;exitY=1;exitDx=0;exitDy=0;entryX=1;entryY=0;entryDx=0;entryDy=0;" parent="1" source="cx-KFS0KVbfxtX87BcAK-2" target="cx-KFS0KVbfxtX87BcAK-4" edge="1">
          <mxGeometry width="50" height="50" relative="1" as="geometry">
            <mxPoint x="300" y="470" as="sourcePoint" />
            <mxPoint x="350" y="420" as="targetPoint" />
          </mxGeometry>
        </mxCell>
        <mxCell id="cx-KFS0KVbfxtX87BcAK-10" value="" style="endArrow=classic;html=1;rounded=0;exitX=0.5;exitY=1;exitDx=0;exitDy=0;entryX=0.5;entryY=0;entryDx=0;entryDy=0;" parent="1" source="cx-KFS0KVbfxtX87BcAK-2" target="cx-KFS0KVbfxtX87BcAK-3" edge="1">
          <mxGeometry width="50" height="50" relative="1" as="geometry">
            <mxPoint x="388" y="428" as="sourcePoint" />
            <mxPoint x="312" y="502" as="targetPoint" />
          </mxGeometry>
        </mxCell>
        <mxCell id="cx-KFS0KVbfxtX87BcAK-11" value="" style="endArrow=classic;html=1;rounded=0;exitX=1;exitY=1;exitDx=0;exitDy=0;entryX=0;entryY=0;entryDx=0;entryDy=0;" parent="1" source="cx-KFS0KVbfxtX87BcAK-2" target="cx-KFS0KVbfxtX87BcAK-5" edge="1">
          <mxGeometry width="50" height="50" relative="1" as="geometry">
            <mxPoint x="430" y="440" as="sourcePoint" />
            <mxPoint x="430" y="490" as="targetPoint" />
          </mxGeometry>
        </mxCell>
        <mxCell id="cx-KFS0KVbfxtX87BcAK-13" value="" style="endArrow=classicThin;dashed=1;html=1;dashPattern=1 3;strokeWidth=2;rounded=0;exitX=1;exitY=0.5;exitDx=0;exitDy=0;entryX=0;entryY=0.5;entryDx=0;entryDy=0;startArrow=classicThin;startFill=1;endFill=1;" parent="1" source="cx-KFS0KVbfxtX87BcAK-4" target="cx-KFS0KVbfxtX87BcAK-3" edge="1">
          <mxGeometry width="50" height="50" relative="1" as="geometry">
            <mxPoint x="10" y="600" as="sourcePoint" />
            <mxPoint x="40" y="519.9999999999998" as="targetPoint" />
          </mxGeometry>
        </mxCell>
        <mxCell id="cx-KFS0KVbfxtX87BcAK-14" value="" style="endArrow=classicThin;dashed=1;html=1;dashPattern=1 3;strokeWidth=2;rounded=0;exitX=1;exitY=0.5;exitDx=0;exitDy=0;entryX=0;entryY=0.5;entryDx=0;entryDy=0;startArrow=classicThin;startFill=1;endFill=1;" parent="1" source="cx-KFS0KVbfxtX87BcAK-3" target="cx-KFS0KVbfxtX87BcAK-5" edge="1">
          <mxGeometry width="50" height="50" relative="1" as="geometry">
            <mxPoint x="330" y="530" as="sourcePoint" />
            <mxPoint x="370" y="530" as="targetPoint" />
          </mxGeometry>
        </mxCell>
        <mxCell id="cx-KFS0KVbfxtX87BcAK-15" value="Wizard" style="ellipse;whiteSpace=wrap;html=1;" parent="1" vertex="1">
          <mxGeometry x="-280" y="720" width="120" height="80" as="geometry" />
        </mxCell>
        <mxCell id="cx-KFS0KVbfxtX87BcAK-16" value="Provide .json" style="ellipse;whiteSpace=wrap;html=1;" parent="1" vertex="1">
          <mxGeometry x="-40" y="720" width="120" height="80" as="geometry" />
        </mxCell>
        <mxCell id="cx-KFS0KVbfxtX87BcAK-17" value="Supported Platforms&lt;br&gt;+&lt;br&gt;Architecture" style="ellipse;whiteSpace=wrap;html=1;" parent="1" vertex="1">
          <mxGeometry x="-340" y="790" width="120" height="80" as="geometry" />
        </mxCell>
        <mxCell id="cx-KFS0KVbfxtX87BcAK-18" value="Supported Compilers" style="ellipse;whiteSpace=wrap;html=1;" parent="1" vertex="1">
          <mxGeometry x="-360" y="870" width="120" height="80" as="geometry" />
        </mxCell>
        <mxCell id="cx-KFS0KVbfxtX87BcAK-19" value="Prerequisites" style="ellipse;whiteSpace=wrap;html=1;" parent="1" vertex="1">
          <mxGeometry x="-340" y="950" width="120" height="80" as="geometry" />
        </mxCell>
        <mxCell id="cx-KFS0KVbfxtX87BcAK-20" value="Library Manager&lt;br&gt;+&lt;br&gt;Libraries" style="ellipse;whiteSpace=wrap;html=1;" parent="1" vertex="1">
          <mxGeometry x="-220" y="950" width="120" height="80" as="geometry" />
        </mxCell>
        <mxCell id="cx-KFS0KVbfxtX87BcAK-21" value="" style="endArrow=classic;html=1;rounded=0;exitX=0.5;exitY=1;exitDx=0;exitDy=0;entryX=1;entryY=0;entryDx=0;entryDy=0;" parent="1" source="cx-KFS0KVbfxtX87BcAK-6" target="cx-KFS0KVbfxtX87BcAK-15" edge="1">
          <mxGeometry width="50" height="50" relative="1" as="geometry">
            <mxPoint x="-170" y="750" as="sourcePoint" />
            <mxPoint x="-120" y="700" as="targetPoint" />
          </mxGeometry>
        </mxCell>
        <mxCell id="cx-KFS0KVbfxtX87BcAK-22" value="" style="endArrow=classic;html=1;rounded=0;exitX=0.5;exitY=1;exitDx=0;exitDy=0;entryX=0;entryY=0;entryDx=0;entryDy=0;" parent="1" source="cx-KFS0KVbfxtX87BcAK-6" target="cx-KFS0KVbfxtX87BcAK-16" edge="1">
          <mxGeometry width="50" height="50" relative="1" as="geometry">
            <mxPoint x="-90" y="690" as="sourcePoint" />
            <mxPoint x="-168" y="742" as="targetPoint" />
          </mxGeometry>
        </mxCell>
        <mxCell id="cx-KFS0KVbfxtX87BcAK-23" value="Generate cache" style="ellipse;whiteSpace=wrap;html=1;" parent="1" vertex="1">
          <mxGeometry x="-220" y="790" width="120" height="80" as="geometry" />
        </mxCell>
        <mxCell id="cx-KFS0KVbfxtX87BcAK-24" value="Overwrite previous cache" style="ellipse;whiteSpace=wrap;html=1;" parent="1" vertex="1">
          <mxGeometry x="-200" y="870" width="120" height="80" as="geometry" />
        </mxCell>
        <mxCell id="cx-KFS0KVbfxtX87BcAK-25" value="" style="endArrow=classicThin;dashed=1;html=1;dashPattern=1 3;strokeWidth=2;rounded=0;exitX=1;exitY=0.5;exitDx=0;exitDy=0;entryX=0;entryY=0.5;entryDx=0;entryDy=0;startArrow=classicThin;startFill=1;endFill=1;" parent="1" source="cx-KFS0KVbfxtX87BcAK-15" target="cx-KFS0KVbfxtX87BcAK-16" edge="1">
          <mxGeometry width="50" height="50" relative="1" as="geometry">
            <mxPoint x="-40" y="830" as="sourcePoint" />
            <mxPoint x="360" y="830" as="targetPoint" />
          </mxGeometry>
        </mxCell>
        <mxCell id="cx-KFS0KVbfxtX87BcAK-26" value="" style="endArrow=classicThin;dashed=1;html=1;dashPattern=1 3;strokeWidth=2;rounded=0;exitX=1;exitY=0.5;exitDx=0;exitDy=0;entryX=0;entryY=0.5;entryDx=0;entryDy=0;startArrow=classicThin;startFill=1;endFill=1;" parent="1" source="cx-KFS0KVbfxtX87BcAK-23" target="cx-KFS0KVbfxtX87BcAK-16" edge="1">
          <mxGeometry width="50" height="50" relative="1" as="geometry">
            <mxPoint x="-150" y="770" as="sourcePoint" />
            <mxPoint x="-30" y="770" as="targetPoint" />
          </mxGeometry>
        </mxCell>
      </root>
    </mxGraphModel>
  </diagram>
</mxfile>
